<svg xmlns="http://www.w3.org/2000/svg" width="96" height="96" viewBox="0 0 96 96">
  <defs>
    <linearGradient id="bg" x1="0%" y1="0%" x2="100%" y2="100%">
      <stop offset="0%" style="stop-color:#0d1421"/>
      <stop offset="100%" style="stop-color:#1a2332"/>
    </linearGradient>
    <linearGradient id="ship" x1="0%" y1="0%" x2="100%" y2="100%">
      <stop offset="0%" style="stop-color:#64b5f6"/>
      <stop offset="100%" style="stop-color:#42a5f5"/>
    </linearGradient>
  </defs>
  <rect width="100%" height="100%" fill="url(#bg)" rx="12"/>
  <circle cx="10" cy="10" r="0.5" fill="rgba(255,255,255,0.8)"/>
  <circle cx="20" cy="15" r="0.8" fill="rgba(255,255,255,0.6)"/>
  <circle cx="50" cy="8" r="0.6" fill="rgba(255,255,255,0.9)"/>
  <circle cx="60" cy="20" r="0.4" fill="rgba(255,255,255,0.7)"/>
  <circle cx="15" cy="55" r="0.7" fill="rgba(255,255,255,0.5)"/>
  <ellipse cx="36" cy="36" rx="8" ry="15" fill="url(#ship)"/>
  <ellipse cx="36" cy="26" rx="5" ry="5" fill="#42a5f5"/>
  <polygon points="30,46 32,56 34,46" fill="#ffc107"/>
  <polygon points="38,46 40,56 42,46" fill="#ffc107"/>
  <polygon points="28,36 22,42 30,40" fill="#90caf9"/>
  <polygon points="44,36 50,42 42,40" fill="#90caf9"/>
</svg>